<?xml version="1.0" encoding="UTF-8"?>
<svg width="700pt" height="700pt" version="1.1" viewBox="0 0 700 700" xmlns="http://www.w3.org/2000/svg">
 <path d="m350 46.668c128.87 0 233.33 104.46 233.33 233.33s-104.46 233.33-233.33 233.33-233.33-104.46-233.33-233.33 104.46-233.33 233.33-233.33zm0 46.664c-103.09 0-186.67 83.574-186.67 186.67s83.574 186.67 186.67 186.67 186.67-83.574 186.67-186.67-83.574-186.67-186.67-186.67zm0 140c11.965 0 21.828 5.2539 23.176 12.023l0.15625 1.5898v136.11c0 7.5195-10.445 13.613-23.332 13.613-11.965 0-21.828-5.2539-23.176-12.023l-0.15625-1.5898v-136.11c0-7.5195 10.445-13.613 23.332-13.613zm0-70c12.887 0 23.332 10.449 23.332 23.336s-10.445 23.332-23.332 23.332-23.332-10.445-23.332-23.332 10.445-23.336 23.332-23.336z"/>
</svg>
